<?xml version="1.0" encoding="utf-8"?>
<!-- Generator: Adobe Illustrator 16.0.0, SVG Export Plug-In . SVG Version: 6.00 Build 0)  -->
<!DOCTYPE svg PUBLIC "-//W3C//DTD SVG 1.1//EN" "http://www.w3.org/Graphics/SVG/1.1/DTD/svg11.dtd">
<svg version="1.1" id="Layer_3" xmlns="http://www.w3.org/2000/svg" xmlns:xlink="http://www.w3.org/1999/xlink" x="0px" y="0px"
	 width="288px" height="288px" viewBox="0 0 288 288" enable-background="new 0 0 288 288" xml:space="preserve">
<g>
	<path fill="#2980B9" d="M144.31,282.891c-76.537,0-138.804-62.268-138.804-138.803C5.506,67.551,67.771,5.285,144.31,5.285
		c76.536,0,138.804,62.266,138.804,138.803C283.113,220.623,220.846,282.891,144.31,282.891z M144.31,10.251
		c-73.799,0-133.837,60.039-133.837,133.837c0,73.797,60.039,133.836,133.837,133.836c73.798,0,133.837-60.039,133.837-133.836
		S218.107,10.251,144.31,10.251z"/>
</g>
<g>
	<g>
		<path fill="#2980B9" d="M107.112,80.058c0,11.66-9.443,21.102-21.103,21.102c-11.651,0-21.093-9.442-21.093-21.102
			c0-11.653,9.442-21.094,21.093-21.094C97.669,58.964,107.112,68.405,107.112,80.058L107.112,80.058z"/>
		<path fill="#2980B9" d="M225.732,80.058c0,11.66-9.454,21.102-21.107,21.102c-11.652,0-21.091-9.442-21.091-21.102
			c0-11.653,9.438-21.094,21.091-21.094C216.278,58.964,225.732,68.405,225.732,80.058L225.732,80.058z"/>
	</g>
	<path fill="#2980B9" d="M220.455,98.95c-4.146,3.875-9.711,6.27-15.83,6.27c-6.113,0-11.672-2.395-15.828-6.27
		c-9,2.373-16.155,9.281-18.895,18.104c-7.776-1.428-16.026-2.208-24.579-2.208c-8.557,0-16.805,0.781-24.581,2.208
		c-2.75-8.823-9.904-15.73-18.894-18.104c-4.158,3.875-9.713,6.27-15.84,6.27c-6.117,0-11.674-2.395-15.831-6.27
		c-11.562,3.055-20.127,13.578-20.127,26.094v21.894l0.054,0.336l1.516,0.476c4.699,1.473,9.181,2.588,13.47,3.466
		c-1.969,4.233-3.054,8.694-3.054,13.297c0,19.878,19.705,37.063,48.065,44.986c-1.041,2.87-1.624,5.968-1.624,9.194v21.907
		l0.053,0.337l1.514,0.476c14.207,4.437,26.561,5.917,36.731,5.917c19.845,0,31.354-5.661,32.072-6.021l1.405-0.711h0.153v-21.905
		c0-3.067-0.519-6.013-1.474-8.762c29.222-7.719,49.665-25.172,49.665-45.42c0-4.387-0.961-8.642-2.761-12.691
		c8.153-1.689,12.744-3.943,13.189-4.17l1.418-0.716h0.143v-21.893C240.595,112.528,232.03,102.005,220.455,98.95L220.455,98.95z
		 M222.848,164.513c0,17.942-19.111,33.391-46.386,40.202c-3.595-5.881-9.356-10.309-16.185-12.104
		c-4.16,3.876-9.716,6.269-15.833,6.269c-6.118,0-11.683-2.393-15.839-6.269c-6.67,1.764-12.335,6.03-15.938,11.718
		c-26.473-7.001-44.87-22.21-44.87-39.815c0-4.245,1.092-8.347,3.086-12.234c6.368,0.982,12.213,1.394,17.465,1.394
		c19.847,0,31.354-5.662,32.07-6.021l1.411-0.714h0.151v-21.903c0-0.801-0.044-1.591-0.107-2.371
		c7.408-1.344,15.276-2.067,23.453-2.067c8.174,0,16.044,0.725,23.451,2.067c-0.074,0.78-0.108,1.57-0.108,2.381v21.894l0.054,0.348
		l1.518,0.464c14.205,4.439,26.562,5.924,36.719,5.924c4.881,0,9.245-0.347,13.079-0.865
		C221.854,156.543,222.848,160.463,222.848,164.513L222.848,164.513z"/>
	<path fill="#2980B9" d="M165.538,173.718c0,11.663-9.441,21.1-21.093,21.1c-11.651,0-21.102-9.437-21.102-21.1
		c0-11.649,9.451-21.094,21.102-21.094C156.097,152.624,165.538,162.068,165.538,173.718L165.538,173.718z"/>
</g>
</svg>
